<svg id="Capa_1" data-name="Capa 1" xmlns="http://www.w3.org/2000/svg" viewBox="0 0 1744 1382"><defs><style>.cls-1{font-size:250.38px;fill:#6533a2;font-family:Montserrat-ExtraBold, Montserrat;font-weight:800;letter-spacing:0.06em;}.cls-2{letter-spacing:0.05em;}.cls-3{letter-spacing:0.06em;}.cls-4{letter-spacing:0.06em;}.cls-5,.cls-6{fill:#0026ff;font-family:Montserrat-Medium, Montserrat;font-weight:500;}.cls-5{letter-spacing:0.06em;}.cls-6{letter-spacing:0.06em;}.cls-7{fill:#00bf10;}.cls-8{fill:#1b1464;}.cls-9{fill:#ffa22a;}.cls-10{fill:#9e000d;}</style></defs><title>logo-abtech-soft-1</title><text class="cls-1" transform="translate(3.17 1285.9) scale(0.9 1)">A<tspan class="cls-2" x="211.82" y="0">B</tspan><tspan x="416.89" y="0">T</tspan><tspan class="cls-3" x="590.9" y="0">E</tspan><tspan class="cls-4" x="773.94" y="0">CH</tspan><tspan class="cls-5" x="1190.57" y="0">SO</tspan><tspan class="cls-6" x="1586.43" y="0">F</tspan><tspan class="cls-5" x="1761.69" y="0">T</tspan></text><text x="-126" y="-323"/><path class="cls-7" d="M1272.41,531.55a97.38,97.38,0,0,0,12,30.69l-29.17,25.19,33.82,36.19,23.4-31.4a84.78,84.78,0,0,0,28.1,12.64l-4.32,40.42h51.6l-4.56-40.55a86.43,86.43,0,0,0,26.5-12l23.47,31.67,36.42-39.16-29.83-25.06a99.32,99.32,0,0,0,11.24-29.29l36.52,4.16V484l-36.39,4.3c-.13-.56-.38-1.12-.54-1.66a100.46,100.46,0,0,0-11.36-29.16c-.18-.21-.26-.55-.44-.78l28.66-24.8-33.77-36.15-23,30.83a.56.56,0,0,0-.28-.06,86.15,86.15,0,0,0-27.79-12.56l4.35-40.35h-51.6l4.58,40.52a.51.51,0,0,1-.31.17A87.77,87.77,0,0,0,1314,425.7a.94.94,0,0,0-.36.29l-23.87-32.15-36.42,39.08,30.18,25.41A102,102,0,0,0,1272,488.52l-37.18-4.23v51.24l37.36-4.45A5.08,5.08,0,0,1,1272.41,531.55Zm48.36-22.4c-.15-24.29,18.26-44,41-44s41.4,19.67,41.53,44-18.08,43.93-40.89,43.93S1321,533.46,1320.77,509.15Z" transform="translate(-126 -323)"/><polygon class="cls-8" points="512.3 759.48 1117.24 630.55 1410.78 712.98 803.71 882.4 512.3 759.48"/><polygon class="cls-8" points="286.76 90.7 959.26 73.94 1083.62 566.14 446.77 672.13 286.76 90.7"/><path class="cls-9" d="M827.15,872.41A18.81,18.81,0,0,1,810,860.58L677.31,547.87,614.25,724.06a19.07,19.07,0,0,1-16,12.89l-351.47,31.2c-10.55.84-19.48-7.32-20.34-18.42s6.86-20.87,17.21-21.78l339.7-30.16,74.94-209.37c2.72-7.61,9.44-12.71,17-12.94A18.48,18.48,0,0,1,693,487.29L823,793.65l35.83-136.19A19.33,19.33,0,0,1,874.17,643l182.11-29.12c10.24-1.71,19.86,5.95,21.41,17s-5.57,21.28-15.85,22.93L891.77,681,845.28,857.69c-2.16,8.16-8.8,14-16.71,14.65A13.5,13.5,0,0,1,827.15,872.41Z" transform="translate(-126 -323)"/><path class="cls-10" d="M1735.08,1021.9,1303.56,889.78c-12.87-3.94-28.74-21.46-32-35.38l-109.63-464C1153,352.57,1117.43,323,1081,323h-.91l-689.85,9.11c-20.29.27-38.37,9.66-49.66,25.75s-14.68,37.3-9.26,58.23L396.77,669.8l29-3.14L359,407.91c-6.31-24.47,7.91-44.73,31.61-45l689.84-9.13h.56c23.5,0,47.3,19.75,53.08,44.16L1243.7,862c5.79,24.6,29.19,50.43,52,57.41l431.52,132.12c22.79,7,22.76,18.29,0,25.17l-687.68,207.22c-9,2.72-20.14,4-31.66,4-17.73,0-36.42-3.08-49.7-8.86L576.43,1113.4c-22-9.54-45.08-37.34-51.39-61.8L457.78,790.9l-29,3.14,68.56,265.76c8.67,33.66,38,69,68.25,82.09l381.71,165.65c16.25,7,38.27,11.1,60.48,11.1,14.59,0,28.25-1.79,39.44-5.16l687.68-207.23c33.06-10,38-30.65,38.07-42.09S1768.12,1032,1735.08,1021.9Z" transform="translate(-126 -323)"/></svg>