<svg xmlns="http://www.w3.org/2000/svg" xmlns:xlink="http://www.w3.org/1999/xlink" viewBox="0 0 1743.99 1677.76"><defs><style>.cls-1{fill:#fff;}.cls-2{isolation:isolate;}.cls-3{mask:url(#mask);}.cls-4{fill:#1b1464;}.cls-5{fill:#9e005d;}.cls-6{fill:#ed1c24;}.cls-7{fill:#006837;}.cls-8{fill:#39b54a;}.cls-9{fill:none;stroke:#fff;stroke-miterlimit:10;stroke-width:8.55px;opacity:0.23;mix-blend-mode:overlay;}.cls-10{font-size:250.38px;fill:#6533a2;font-family:Montserrat-ExtraBold, Montserrat;font-weight:800;letter-spacing:0.06em;}.cls-11{letter-spacing:0.05em;}.cls-12,.cls-14{letter-spacing:0.06em;}.cls-13{letter-spacing:0.06em;}.cls-14,.cls-15{fill:#0026ff;font-family:Montserrat-Medium, Montserrat;font-weight:500;}.cls-15{letter-spacing:0.06em;}</style><mask id="mask" x="61.39" y="-76.08" width="1582.47" height="1439.91" maskUnits="userSpaceOnUse"><g transform="translate(-109.13 -110)"><path class="cls-1" d="M170.51,33.92V1473.84H1741.4V33.92Zm861.83,1267.57H385.66V382.63h646.68Zm653.41-739.91c0,5-.15,10.13-.42,15.21l33.81,11a49,49,0,0,1,31.42,61.73l-16.16,49.81a48.83,48.83,0,0,1-46.54,33.87h0a48.65,48.65,0,0,1-15.12-2.41l-33.81-11A291.13,291.13,0,0,1,1621,744.35L1642,773.17a49,49,0,0,1-10.83,68.43l-42.33,30.79a48.56,48.56,0,0,1-28.74,9.35,49.09,49.09,0,0,1-39.62-20.2l-20.86-28.75a288.39,288.39,0,0,1-28.91,9.38v35.57a49,49,0,0,1-48.94,49h-52.32a49,49,0,0,1-48.94-49V842.17a289.09,289.09,0,0,1-28.91-9.38l-20.87,28.75a49.09,49.09,0,0,1-39.61,20.2,48.59,48.59,0,0,1-28.75-9.35L1160,841.6a49,49,0,0,1-10.83-68.43l20.92-28.81a291.84,291.84,0,0,1-17.91-24.62l-33.77,11a48.87,48.87,0,0,1-61.67-31.46l-16.17-49.81A49.08,49.08,0,0,1,1072,587.78l33.81-11c-.28-5.14-.43-10.25-.43-15.21s.15-10.06.43-15.2l-33.81-11a49.07,49.07,0,0,1-31.43-61.72l16.17-49.82a48.88,48.88,0,0,1,61.67-31.45l33.8,11a293.78,293.78,0,0,1,17.88-24.57L1149.17,350A49,49,0,0,1,1160,281.56l42.32-30.78a48.59,48.59,0,0,1,28.76-9.36,49.09,49.09,0,0,1,39.61,20.2l20.87,28.75a286.61,286.61,0,0,1,28.91-9.38V245.42a49,49,0,0,1,48.94-49h52.32a49,49,0,0,1,48.94,49V281a285.71,285.71,0,0,1,28.91,9.39l20.86-28.76a49.09,49.09,0,0,1,39.62-20.2,48.56,48.56,0,0,1,28.75,9.36l42.32,30.78A49,49,0,0,1,1642,350L1621,378.81A290.75,290.75,0,0,1,1639,403.43l33.77-11a48.87,48.87,0,0,1,61.67,31.46l16.16,49.8a49,49,0,0,1-31.42,61.73l-33.81,11C1685.6,551.46,1685.75,556.56,1685.75,561.58Z"/></g></mask></defs><title>logo-abtech-soft-2</title><g class="cls-2"><g id="Capa_1" data-name="Capa 1"><g class="cls-3"><path class="cls-4" d="M1291.28,457.18c-325.1-325.44-734.77-443-915-262.54s-62.84,590.55,262.26,916,734.76,443,915,262.54S1616.37,782.62,1291.28,457.18Zm243.29,897C1376.32,1512.61,991.3,1384,674.62,1067S229.51,364.58,387.77,206.16s543.27-29.86,860,287.16S1692.83,1195.76,1534.57,1354.18Z" transform="translate(-109.13 -110)"/></g><path class="cls-5" d="M385.66,1181.33c0,49.8,40.33,78.15,90.09,78.15H812.39v-8.3a36.76,36.76,0,0,1,36.74-36.79h187.29a36.76,36.76,0,0,1,36.74,36.79v8.3H1409.8c49.76,0,90.09-28.35,90.09-78.15Z" transform="translate(-109.13 -110)"/><path class="cls-5" d="M1420.88,914.89h-25.3v107.57a41.47,41.47,0,0,1-41.44,41.49H531.41A41.46,41.46,0,0,1,490,1022.47V545.35a41.46,41.46,0,0,1,41.44-41.48h520.12a47.24,47.24,0,0,1,.55-27.36l9.6-29.6H526.92a93.9,93.9,0,0,0-93.85,93.94V1027a93.9,93.9,0,0,0,93.85,93.94h831.71a93.9,93.9,0,0,0,93.85-93.94V902.7A47.12,47.12,0,0,1,1420.88,914.89Z" transform="translate(-109.13 -110)"/><path class="cls-6" d="M1693.49,608.89l-32.87-10.69a22.32,22.32,0,0,1-15.45-22.47c.27-4.68.42-9.4.42-14.15s-.15-9.47-.42-14.15A22.32,22.32,0,0,1,1660.62,525l32.87-10.69A22.47,22.47,0,0,0,1707.9,486l-15.25-47a22.44,22.44,0,0,0-28.28-14.43l-32.85,10.69a22.3,22.3,0,0,1-25.65-9,251.86,251.86,0,0,0-16.72-23,22.36,22.36,0,0,1-.67-27.25l20.33-28a22.49,22.49,0,0,0-5-31.38l-39.93-29a22.42,22.42,0,0,0-31.34,5l-20.29,27.95a22.29,22.29,0,0,1-26.08,7.79,246.8,246.8,0,0,0-27-8.77,22.33,22.33,0,0,1-16.52-21.65V263.32a22.45,22.45,0,0,0-22.43-22.46h-49.36a22.45,22.45,0,0,0-22.44,22.46v34.56a22.32,22.32,0,0,1-16.51,21.65,247,247,0,0,0-27,8.77,22.3,22.3,0,0,1-26.08-7.79l-20.28-27.95a22.42,22.42,0,0,0-31.34-5l-39.93,29a22.48,22.48,0,0,0-5,31.38l20.33,28a22.35,22.35,0,0,1-.67,27.25,253.78,253.78,0,0,0-16.72,23,22.28,22.28,0,0,1-25.64,9l-32.85-10.69A22.44,22.44,0,0,0,1098.49,439l-15.25,47a22.46,22.46,0,0,0,14.41,28.3L1130.51,525A22.33,22.33,0,0,1,1146,547.43q-.42,7-.43,14.15t.43,14.15a22.32,22.32,0,0,1-15.46,22.47l-32.86,10.69a22.46,22.46,0,0,0-14.41,28.3l15.25,47a22.45,22.45,0,0,0,28.28,14.42l32.85-10.69a22.28,22.28,0,0,1,25.64,9,251,251,0,0,0,16.72,23,22.35,22.35,0,0,1,.67,27.25l-20.33,28a22.47,22.47,0,0,0,5,31.37l39.93,29a22.42,22.42,0,0,0,31.34-5l20.28-28a22.3,22.3,0,0,1,26.08-7.79,247,247,0,0,0,27,8.77,22.32,22.32,0,0,1,16.51,21.65v34.56a22.45,22.45,0,0,0,22.44,22.46h49.36a22.44,22.44,0,0,0,22.43-22.46V825.28a22.33,22.33,0,0,1,16.52-21.65,246.8,246.8,0,0,0,27-8.77,22.29,22.29,0,0,1,26.08,7.79l20.29,28a22.42,22.42,0,0,0,31.34,5l39.93-29a22.48,22.48,0,0,0,5-31.37l-20.33-28a22.36,22.36,0,0,1,.67-27.25,250.49,250.49,0,0,0,16.72-23,22.3,22.3,0,0,1,25.65-9l32.85,10.69a22.45,22.45,0,0,0,28.28-14.42l15.25-47A22.47,22.47,0,0,0,1693.49,608.89ZM1395.57,730.12c-93,0-168.36-75.46-168.36-168.54S1302.59,393,1395.57,393s168.36,75.46,168.36,168.54S1488.55,730.12,1395.57,730.12Z" transform="translate(-109.13 -110)"/><path class="cls-7" d="M1066.68,857.75,1053,853.31a9.3,9.3,0,0,1-6.43-9.35q.18-2.93.18-5.89t-.18-5.88a9.3,9.3,0,0,1,6.43-9.35l13.67-4.44a9.34,9.34,0,0,0,6-11.77l-6.34-19.55a9.33,9.33,0,0,0-11.76-6l-13.66,4.44a9.28,9.28,0,0,1-10.67-3.74,105.47,105.47,0,0,0-7-9.56,9.29,9.29,0,0,1-.28-11.33l8.45-11.65a9.35,9.35,0,0,0-2.06-13l-16.61-12.08a9.32,9.32,0,0,0-13,2.07l-8.44,11.62a9.27,9.27,0,0,1-10.85,3.24,100.81,100.81,0,0,0-11.23-3.64,9.29,9.29,0,0,1-6.87-9V714a9.34,9.34,0,0,0-9.33-9.34H932.51a9.34,9.34,0,0,0-9.33,9.34V728.4a9.27,9.27,0,0,1-6.87,9,103.85,103.85,0,0,0-11.24,3.65,9.25,9.25,0,0,1-10.84-3.24l-8.44-11.62a9.32,9.32,0,0,0-13-2.07L856.15,736.2a9.35,9.35,0,0,0-2.06,13l8.45,11.65a9.29,9.29,0,0,1-.28,11.33,105.47,105.47,0,0,0-7,9.56,9.28,9.28,0,0,1-10.67,3.74L831,781.09a9.33,9.33,0,0,0-11.76,6l-6.34,19.55a9.34,9.34,0,0,0,6,11.77l13.67,4.44a9.3,9.3,0,0,1,6.43,9.35q-.18,2.92-.18,5.88T839,844a9.3,9.3,0,0,1-6.43,9.35l-13.67,4.44a9.34,9.34,0,0,0-6,11.77l6.34,19.55a9.34,9.34,0,0,0,11.76,6l13.66-4.45a9.28,9.28,0,0,1,10.67,3.74,105.47,105.47,0,0,0,7,9.56,9.29,9.29,0,0,1,.28,11.33l-8.45,11.65A9.35,9.35,0,0,0,856.15,940L872.76,952a9.32,9.32,0,0,0,13-2.07l8.44-11.62a9.27,9.27,0,0,1,10.85-3.24,103,103,0,0,0,11.23,3.65,9.27,9.27,0,0,1,6.87,9v14.37a9.34,9.34,0,0,0,9.33,9.35H953a9.34,9.34,0,0,0,9.33-9.35V947.75a9.29,9.29,0,0,1,6.87-9,100.81,100.81,0,0,0,11.23-3.64,9.27,9.27,0,0,1,10.85,3.24L999.76,950a9.32,9.32,0,0,0,13,2.07L1029.4,940a9.35,9.35,0,0,0,2.06-13.05L1023,915.25a9.29,9.29,0,0,1,.28-11.33,105.47,105.47,0,0,0,7-9.56,9.28,9.28,0,0,1,10.67-3.74l13.66,4.45a9.34,9.34,0,0,0,11.76-6l6.34-19.55A9.34,9.34,0,0,0,1066.68,857.75ZM942.77,908.17a70.1,70.1,0,1,1,70-70.1A70.06,70.06,0,0,1,942.77,908.17Z" transform="translate(-109.13 -110)"/><path class="cls-8" d="M723.35,737.27,719,728.73a6.19,6.19,0,0,1,1.37-7.43c1-.87,1.92-1.76,2.85-2.69s1.82-1.88,2.68-2.85a6.18,6.18,0,0,1,7.43-1.37l8.53,4.35a6.21,6.21,0,0,0,8.35-2.72l6.21-12.2a6.21,6.21,0,0,0-2.72-8.36l-8.52-4.35a6.19,6.19,0,0,1-3.26-6.79,70.68,70.68,0,0,0,1.22-7.78,6.19,6.19,0,0,1,5.2-5.47l9.46-1.5a6.21,6.21,0,0,0,5.16-7.11l-2.13-13.52a6.22,6.22,0,0,0-7.11-5.17l-9.44,1.5a6.21,6.21,0,0,1-6.64-3.59,69,69,0,0,0-3.57-7,6.19,6.19,0,0,1,1-7.48l6.76-6.77a6.22,6.22,0,0,0,0-8.8l-9.66-9.68a6.23,6.23,0,0,0-8.79,0l-6.76,6.77a6.17,6.17,0,0,1-7.47,1,67,67,0,0,0-7-3.58,6.19,6.19,0,0,1-3.58-6.64l1.49-9.45a6.21,6.21,0,0,0-5.16-7.12l-13.5-2.14a6.21,6.21,0,0,0-7.11,5.17l-1.5,9.47a6.2,6.2,0,0,1-5.46,5.21,67.86,67.86,0,0,0-7.77,1.22,6.17,6.17,0,0,1-6.79-3.27l-4.34-8.53a6.21,6.21,0,0,0-8.36-2.72l-12.18,6.21a6.22,6.22,0,0,0-2.71,8.37l4.34,8.54a6.19,6.19,0,0,1-1.37,7.43c-1,.86-1.92,1.76-2.85,2.69s-1.82,1.88-2.68,2.85a6.18,6.18,0,0,1-7.43,1.37l-8.53-4.35a6.2,6.2,0,0,0-8.35,2.72l-6.21,12.19a6.23,6.23,0,0,0,2.72,8.37l8.52,4.35a6.18,6.18,0,0,1,3.26,6.79,70.68,70.68,0,0,0-1.22,7.78,6.17,6.17,0,0,1-5.2,5.46l-9.46,1.5a6.22,6.22,0,0,0-5.16,7.12l2.13,13.52a6.22,6.22,0,0,0,7.11,5.17l9.44-1.5a6.18,6.18,0,0,1,6.64,3.59,69,69,0,0,0,3.57,7,6.19,6.19,0,0,1-1,7.48l-6.76,6.77a6.22,6.22,0,0,0,0,8.8l9.66,9.67a6.21,6.21,0,0,0,8.79,0l6.76-6.77a6.18,6.18,0,0,1,7.47-1,67,67,0,0,0,7,3.58,6.19,6.19,0,0,1,3.58,6.64l-1.49,9.45a6.22,6.22,0,0,0,5.16,7.12l13.5,2.14a6.22,6.22,0,0,0,7.11-5.17l1.5-9.47a6.19,6.19,0,0,1,5.46-5.21,70.51,70.51,0,0,0,7.77-1.22,6.18,6.18,0,0,1,6.79,3.26l4.34,8.54a6.21,6.21,0,0,0,8.36,2.72l12.18-6.22A6.21,6.21,0,0,0,723.35,737.27ZM641.29,702.6a46.65,46.65,0,1,1,66,0A46.71,46.71,0,0,1,641.29,702.6Z" transform="translate(-109.13 -110)"/><ellipse class="cls-6" cx="1286.44" cy="451.58" rx="107.9" ry="108.01"/><ellipse class="cls-9" cx="1286.44" cy="451.58" rx="210.29" ry="210.52"/><text class="cls-10" transform="translate(3.17 1610.65) scale(0.9 1)">A<tspan class="cls-11" x="211.82" y="0">B</tspan><tspan class="cls-12" x="416.89" y="0">T</tspan><tspan class="cls-13" x="590.9" y="0">E</tspan><tspan class="cls-12" x="773.94" y="0">CH</tspan><tspan class="cls-14" x="1190.57" y="0">SO</tspan><tspan class="cls-15" x="1586.43" y="0">F</tspan><tspan class="cls-14" x="1761.69" y="0">T</tspan></text></g></g></svg>